<svg width="854" height="157" viewBox="0 0 854 157" fill="none" xmlns="http://www.w3.org/2000/svg">
<mask id="path-1-outside-1_49_4" maskUnits="userSpaceOnUse" x="0" y="0" width="854" height="157" fill="black">
<rect fill="white" width="854" height="157"/>
<path d="M61.1156 155C42.9477 155 28.5531 149.956 17.9319 139.868C7.31062 129.64 2 115.069 2 96.1538V60.8462C2 41.9313 7.31062 27.4299 17.9319 17.342C28.5531 7.11401 42.9477 2 61.1156 2C79.1438 2 93.0492 6.9739 102.832 16.9217C112.754 26.7294 117.716 40.25 117.716 57.4835V58.7445H90.4638V56.6429C90.4638 47.956 88.0181 40.8104 83.1268 35.206C78.3752 29.6016 71.0381 26.7995 61.1156 26.7995C51.3329 26.7995 43.6465 29.8118 38.0563 35.8365C32.4662 41.8613 29.6711 50.0577 29.6711 60.4258V96.5742C29.6711 106.802 32.4662 114.999 38.0563 121.163C43.6465 127.188 51.3329 130.201 61.1156 130.201C71.0381 130.201 78.3752 127.398 83.1268 121.794C88.0181 116.049 90.4638 108.904 90.4638 100.357V96.5742H117.716V99.5165C117.716 116.75 112.754 130.341 102.832 140.288C93.0492 150.096 79.1438 155 61.1156 155Z"/>
<path d="M190.574 155C180.232 155 170.938 152.898 162.693 148.695C154.447 144.492 147.949 138.397 143.197 130.411C138.446 122.424 136.07 112.827 136.07 101.618V98.2555C136.07 87.0467 138.446 77.4492 143.197 69.4629C147.949 61.4766 154.447 55.3819 162.693 51.1786C170.938 46.9753 180.232 44.8736 190.574 44.8736C200.915 44.8736 210.209 46.9753 218.454 51.1786C226.7 55.3819 233.198 61.4766 237.95 69.4629C242.701 77.4492 245.077 87.0467 245.077 98.2555V101.618C245.077 112.827 242.701 122.424 237.95 130.411C233.198 138.397 226.7 144.492 218.454 148.695C210.209 152.898 200.915 155 190.574 155ZM190.574 131.462C198.679 131.462 205.387 128.869 210.698 123.685C216.009 118.361 218.664 110.795 218.664 100.988V98.886C218.664 89.0783 216.009 81.5824 210.698 76.3983C205.527 71.0742 198.819 68.4121 190.574 68.4121C182.468 68.4121 175.76 71.0742 170.449 76.3983C165.138 81.5824 162.483 89.0783 162.483 98.886V100.988C162.483 110.795 165.138 118.361 170.449 123.685C175.76 128.869 182.468 131.462 190.574 131.462Z"/>
<path d="M311.384 155C303.139 155 295.382 152.968 288.115 148.905C280.988 144.702 275.258 138.607 270.926 130.621C266.593 122.635 264.427 112.967 264.427 101.618V98.2555C264.427 86.9066 266.593 77.239 270.926 69.2527C275.258 61.2665 280.988 55.2418 288.115 51.1786C295.243 46.9753 302.999 44.8736 311.384 44.8736C317.673 44.8736 322.914 45.6442 327.106 47.1854C331.439 48.5865 334.933 50.408 337.588 52.6497C340.243 54.8915 342.27 57.2734 343.667 59.7953H347.441V4.94231H373.854V152.058H347.86V139.448H344.086C341.711 143.371 338.007 146.944 332.976 150.166C328.085 153.389 320.887 155 311.384 155ZM319.35 131.882C327.456 131.882 334.234 129.29 339.684 124.106C345.135 118.782 347.86 111.076 347.86 100.988V98.886C347.86 88.7981 345.135 81.1621 339.684 75.978C334.374 70.6538 327.596 67.9918 319.35 67.9918C311.244 67.9918 304.466 70.6538 299.016 75.978C293.566 81.1621 290.84 88.7981 290.84 98.886V100.988C290.84 111.076 293.566 118.782 299.016 124.106C304.466 129.29 311.244 131.882 319.35 131.882Z"/>
<path d="M450.515 155C440.173 155 431.019 152.828 423.053 148.485C415.227 144.001 409.078 137.766 404.606 129.78C400.273 121.654 398.107 112.126 398.107 101.198V98.6758C398.107 87.7472 400.273 78.2898 404.606 70.3036C408.938 62.1772 415.017 55.9423 422.843 51.5989C430.67 47.1154 439.754 44.8736 450.095 44.8736C460.297 44.8736 469.172 47.1854 476.718 51.8091C484.265 56.2926 490.135 62.5975 494.327 70.7239C498.52 78.7102 500.616 88.0275 500.616 98.6758V107.713H424.94C425.219 114.859 427.875 120.673 432.906 125.157C437.937 129.64 444.086 131.882 451.353 131.882C458.76 131.882 464.21 130.271 467.704 127.048C471.198 123.826 473.853 120.253 475.67 116.33L497.262 127.679C495.305 131.321 492.441 135.315 488.667 139.658C485.034 143.861 480.142 147.504 473.993 150.587C467.844 153.529 460.018 155 450.515 155ZM425.149 87.9574H473.783C473.224 81.9327 470.779 77.0989 466.446 73.456C462.254 69.8132 456.734 67.9918 449.886 67.9918C442.758 67.9918 437.098 69.8132 432.906 73.456C428.713 77.0989 426.128 81.9327 425.149 87.9574Z"/>
<path d="M535.027 152.058L515.741 4.94231H543.202L557.457 132.723H561.23L579.678 4.94231H627.473L645.921 132.723H649.694L663.949 4.94231H691.41L672.125 152.058H624.329L605.462 21.3352H601.689L582.822 152.058H535.027Z"/>
<path d="M712.465 152.058V47.8159H738.878V152.058H712.465ZM725.672 35.6264C720.92 35.6264 716.867 34.0852 713.513 31.0027C710.299 27.9203 708.692 23.8571 708.692 18.8132C708.692 13.7692 710.299 9.70605 713.513 6.62363C716.867 3.54121 720.92 2 725.672 2C730.563 2 734.616 3.54121 737.83 6.62363C741.045 9.70605 742.652 13.7692 742.652 18.8132C742.652 23.8571 741.045 27.9203 737.83 31.0027C734.616 34.0852 730.563 35.6264 725.672 35.6264Z"/>
<path d="M764.375 152.058V120.533L821.394 73.0357V69.6731H766.471V47.8159H850.323V79.3407L793.304 126.838V130.201H852V152.058H764.375Z"/>
</mask>
<path d="M61.1156 155C42.9477 155 28.5531 149.956 17.9319 139.868C7.31062 129.64 2 115.069 2 96.1538V60.8462C2 41.9313 7.31062 27.4299 17.9319 17.342C28.5531 7.11401 42.9477 2 61.1156 2C79.1438 2 93.0492 6.9739 102.832 16.9217C112.754 26.7294 117.716 40.25 117.716 57.4835V58.7445H90.4638V56.6429C90.4638 47.956 88.0181 40.8104 83.1268 35.206C78.3752 29.6016 71.0381 26.7995 61.1156 26.7995C51.3329 26.7995 43.6465 29.8118 38.0563 35.8365C32.4662 41.8613 29.6711 50.0577 29.6711 60.4258V96.5742C29.6711 106.802 32.4662 114.999 38.0563 121.163C43.6465 127.188 51.3329 130.201 61.1156 130.201C71.0381 130.201 78.3752 127.398 83.1268 121.794C88.0181 116.049 90.4638 108.904 90.4638 100.357V96.5742H117.716V99.5165C117.716 116.75 112.754 130.341 102.832 140.288C93.0492 150.096 79.1438 155 61.1156 155Z" fill="black"/>
<path d="M190.574 155C180.232 155 170.938 152.898 162.693 148.695C154.447 144.492 147.949 138.397 143.197 130.411C138.446 122.424 136.07 112.827 136.07 101.618V98.2555C136.07 87.0467 138.446 77.4492 143.197 69.4629C147.949 61.4766 154.447 55.3819 162.693 51.1786C170.938 46.9753 180.232 44.8736 190.574 44.8736C200.915 44.8736 210.209 46.9753 218.454 51.1786C226.7 55.3819 233.198 61.4766 237.95 69.4629C242.701 77.4492 245.077 87.0467 245.077 98.2555V101.618C245.077 112.827 242.701 122.424 237.95 130.411C233.198 138.397 226.7 144.492 218.454 148.695C210.209 152.898 200.915 155 190.574 155ZM190.574 131.462C198.679 131.462 205.387 128.869 210.698 123.685C216.009 118.361 218.664 110.795 218.664 100.988V98.886C218.664 89.0783 216.009 81.5824 210.698 76.3983C205.527 71.0742 198.819 68.4121 190.574 68.4121C182.468 68.4121 175.76 71.0742 170.449 76.3983C165.138 81.5824 162.483 89.0783 162.483 98.886V100.988C162.483 110.795 165.138 118.361 170.449 123.685C175.76 128.869 182.468 131.462 190.574 131.462Z" fill="black"/>
<path d="M311.384 155C303.139 155 295.382 152.968 288.115 148.905C280.988 144.702 275.258 138.607 270.926 130.621C266.593 122.635 264.427 112.967 264.427 101.618V98.2555C264.427 86.9066 266.593 77.239 270.926 69.2527C275.258 61.2665 280.988 55.2418 288.115 51.1786C295.243 46.9753 302.999 44.8736 311.384 44.8736C317.673 44.8736 322.914 45.6442 327.106 47.1854C331.439 48.5865 334.933 50.408 337.588 52.6497C340.243 54.8915 342.27 57.2734 343.667 59.7953H347.441V4.94231H373.854V152.058H347.86V139.448H344.086C341.711 143.371 338.007 146.944 332.976 150.166C328.085 153.389 320.887 155 311.384 155ZM319.35 131.882C327.456 131.882 334.234 129.29 339.684 124.106C345.135 118.782 347.86 111.076 347.86 100.988V98.886C347.86 88.7981 345.135 81.1621 339.684 75.978C334.374 70.6538 327.596 67.9918 319.35 67.9918C311.244 67.9918 304.466 70.6538 299.016 75.978C293.566 81.1621 290.84 88.7981 290.84 98.886V100.988C290.84 111.076 293.566 118.782 299.016 124.106C304.466 129.29 311.244 131.882 319.35 131.882Z" fill="black"/>
<path d="M450.515 155C440.173 155 431.019 152.828 423.053 148.485C415.227 144.001 409.078 137.766 404.606 129.78C400.273 121.654 398.107 112.126 398.107 101.198V98.6758C398.107 87.7472 400.273 78.2898 404.606 70.3036C408.938 62.1772 415.017 55.9423 422.843 51.5989C430.67 47.1154 439.754 44.8736 450.095 44.8736C460.297 44.8736 469.172 47.1854 476.718 51.8091C484.265 56.2926 490.135 62.5975 494.327 70.7239C498.52 78.7102 500.616 88.0275 500.616 98.6758V107.713H424.94C425.219 114.859 427.875 120.673 432.906 125.157C437.937 129.64 444.086 131.882 451.353 131.882C458.76 131.882 464.21 130.271 467.704 127.048C471.198 123.826 473.853 120.253 475.67 116.33L497.262 127.679C495.305 131.321 492.441 135.315 488.667 139.658C485.034 143.861 480.142 147.504 473.993 150.587C467.844 153.529 460.018 155 450.515 155ZM425.149 87.9574H473.783C473.224 81.9327 470.779 77.0989 466.446 73.456C462.254 69.8132 456.734 67.9918 449.886 67.9918C442.758 67.9918 437.098 69.8132 432.906 73.456C428.713 77.0989 426.128 81.9327 425.149 87.9574Z" fill="black"/>
<path d="M535.027 152.058L515.741 4.94231H543.202L557.457 132.723H561.23L579.678 4.94231H627.473L645.921 132.723H649.694L663.949 4.94231H691.41L672.125 152.058H624.329L605.462 21.3352H601.689L582.822 152.058H535.027Z" fill="black"/>
<path d="M712.465 152.058V47.8159H738.878V152.058H712.465ZM725.672 35.6264C720.92 35.6264 716.867 34.0852 713.513 31.0027C710.299 27.9203 708.692 23.8571 708.692 18.8132C708.692 13.7692 710.299 9.70605 713.513 6.62363C716.867 3.54121 720.92 2 725.672 2C730.563 2 734.616 3.54121 737.83 6.62363C741.045 9.70605 742.652 13.7692 742.652 18.8132C742.652 23.8571 741.045 27.9203 737.83 31.0027C734.616 34.0852 730.563 35.6264 725.672 35.6264Z" fill="black"/>
<path d="M764.375 152.058V120.533L821.394 73.0357V69.6731H766.471V47.8159H850.323V79.3407L793.304 126.838V130.201H852V152.058H764.375Z" fill="black"/>
<path d="M61.1156 155C42.9477 155 28.5531 149.956 17.9319 139.868C7.31062 129.64 2 115.069 2 96.1538V60.8462C2 41.9313 7.31062 27.4299 17.9319 17.342C28.5531 7.11401 42.9477 2 61.1156 2C79.1438 2 93.0492 6.9739 102.832 16.9217C112.754 26.7294 117.716 40.25 117.716 57.4835V58.7445H90.4638V56.6429C90.4638 47.956 88.0181 40.8104 83.1268 35.206C78.3752 29.6016 71.0381 26.7995 61.1156 26.7995C51.3329 26.7995 43.6465 29.8118 38.0563 35.8365C32.4662 41.8613 29.6711 50.0577 29.6711 60.4258V96.5742C29.6711 106.802 32.4662 114.999 38.0563 121.163C43.6465 127.188 51.3329 130.201 61.1156 130.201C71.0381 130.201 78.3752 127.398 83.1268 121.794C88.0181 116.049 90.4638 108.904 90.4638 100.357V96.5742H117.716V99.5165C117.716 116.75 112.754 130.341 102.832 140.288C93.0492 150.096 79.1438 155 61.1156 155Z" stroke="black" stroke-width="4" mask="url(#path-1-outside-1_49_4)"/>
<path d="M190.574 155C180.232 155 170.938 152.898 162.693 148.695C154.447 144.492 147.949 138.397 143.197 130.411C138.446 122.424 136.07 112.827 136.07 101.618V98.2555C136.07 87.0467 138.446 77.4492 143.197 69.4629C147.949 61.4766 154.447 55.3819 162.693 51.1786C170.938 46.9753 180.232 44.8736 190.574 44.8736C200.915 44.8736 210.209 46.9753 218.454 51.1786C226.7 55.3819 233.198 61.4766 237.95 69.4629C242.701 77.4492 245.077 87.0467 245.077 98.2555V101.618C245.077 112.827 242.701 122.424 237.95 130.411C233.198 138.397 226.7 144.492 218.454 148.695C210.209 152.898 200.915 155 190.574 155ZM190.574 131.462C198.679 131.462 205.387 128.869 210.698 123.685C216.009 118.361 218.664 110.795 218.664 100.988V98.886C218.664 89.0783 216.009 81.5824 210.698 76.3983C205.527 71.0742 198.819 68.4121 190.574 68.4121C182.468 68.4121 175.76 71.0742 170.449 76.3983C165.138 81.5824 162.483 89.0783 162.483 98.886V100.988C162.483 110.795 165.138 118.361 170.449 123.685C175.76 128.869 182.468 131.462 190.574 131.462Z" stroke="black" stroke-width="4" mask="url(#path-1-outside-1_49_4)"/>
<path d="M311.384 155C303.139 155 295.382 152.968 288.115 148.905C280.988 144.702 275.258 138.607 270.926 130.621C266.593 122.635 264.427 112.967 264.427 101.618V98.2555C264.427 86.9066 266.593 77.239 270.926 69.2527C275.258 61.2665 280.988 55.2418 288.115 51.1786C295.243 46.9753 302.999 44.8736 311.384 44.8736C317.673 44.8736 322.914 45.6442 327.106 47.1854C331.439 48.5865 334.933 50.408 337.588 52.6497C340.243 54.8915 342.27 57.2734 343.667 59.7953H347.441V4.94231H373.854V152.058H347.86V139.448H344.086C341.711 143.371 338.007 146.944 332.976 150.166C328.085 153.389 320.887 155 311.384 155ZM319.35 131.882C327.456 131.882 334.234 129.29 339.684 124.106C345.135 118.782 347.86 111.076 347.86 100.988V98.886C347.86 88.7981 345.135 81.1621 339.684 75.978C334.374 70.6538 327.596 67.9918 319.35 67.9918C311.244 67.9918 304.466 70.6538 299.016 75.978C293.566 81.1621 290.84 88.7981 290.84 98.886V100.988C290.84 111.076 293.566 118.782 299.016 124.106C304.466 129.29 311.244 131.882 319.35 131.882Z" stroke="black" stroke-width="4" mask="url(#path-1-outside-1_49_4)"/>
<path d="M450.515 155C440.173 155 431.019 152.828 423.053 148.485C415.227 144.001 409.078 137.766 404.606 129.78C400.273 121.654 398.107 112.126 398.107 101.198V98.6758C398.107 87.7472 400.273 78.2898 404.606 70.3036C408.938 62.1772 415.017 55.9423 422.843 51.5989C430.67 47.1154 439.754 44.8736 450.095 44.8736C460.297 44.8736 469.172 47.1854 476.718 51.8091C484.265 56.2926 490.135 62.5975 494.327 70.7239C498.52 78.7102 500.616 88.0275 500.616 98.6758V107.713H424.94C425.219 114.859 427.875 120.673 432.906 125.157C437.937 129.64 444.086 131.882 451.353 131.882C458.76 131.882 464.21 130.271 467.704 127.048C471.198 123.826 473.853 120.253 475.67 116.33L497.262 127.679C495.305 131.321 492.441 135.315 488.667 139.658C485.034 143.861 480.142 147.504 473.993 150.587C467.844 153.529 460.018 155 450.515 155ZM425.149 87.9574H473.783C473.224 81.9327 470.779 77.0989 466.446 73.456C462.254 69.8132 456.734 67.9918 449.886 67.9918C442.758 67.9918 437.098 69.8132 432.906 73.456C428.713 77.0989 426.128 81.9327 425.149 87.9574Z" stroke="black" stroke-width="4" mask="url(#path-1-outside-1_49_4)"/>
<path d="M535.027 152.058L515.741 4.94231H543.202L557.457 132.723H561.23L579.678 4.94231H627.473L645.921 132.723H649.694L663.949 4.94231H691.41L672.125 152.058H624.329L605.462 21.3352H601.689L582.822 152.058H535.027Z" stroke="black" stroke-width="4" mask="url(#path-1-outside-1_49_4)"/>
<path d="M712.465 152.058V47.8159H738.878V152.058H712.465ZM725.672 35.6264C720.92 35.6264 716.867 34.0852 713.513 31.0027C710.299 27.9203 708.692 23.8571 708.692 18.8132C708.692 13.7692 710.299 9.70605 713.513 6.62363C716.867 3.54121 720.92 2 725.672 2C730.563 2 734.616 3.54121 737.83 6.62363C741.045 9.70605 742.652 13.7692 742.652 18.8132C742.652 23.8571 741.045 27.9203 737.83 31.0027C734.616 34.0852 730.563 35.6264 725.672 35.6264Z" stroke="black" stroke-width="4" mask="url(#path-1-outside-1_49_4)"/>
<path d="M764.375 152.058V120.533L821.394 73.0357V69.6731H766.471V47.8159H850.323V79.3407L793.304 126.838V130.201H852V152.058H764.375Z" stroke="black" stroke-width="4" mask="url(#path-1-outside-1_49_4)"/>
</svg>
