<svg width="1204" height="179" viewBox="0 0 1204 179" fill="none" xmlns="http://www.w3.org/2000/svg">
<mask id="path-1-outside-1_49_20" maskUnits="userSpaceOnUse" x="350" y="22" width="854" height="157" fill="black">
<rect fill="white" x="350" y="22" width="854" height="157"/>
<path d="M411.116 177C392.948 177 378.553 171.956 367.932 161.868C357.311 151.64 352 137.069 352 118.154V82.8462C352 63.9313 357.311 49.4299 367.932 39.342C378.553 29.114 392.948 24 411.116 24C429.144 24 443.049 28.9739 452.832 38.9217C462.754 48.7294 467.716 62.25 467.716 79.4835V80.7445H440.464V78.6429C440.464 69.956 438.018 62.8104 433.127 57.206C428.375 51.6016 421.038 48.7995 411.116 48.7995C401.333 48.7995 393.646 51.8118 388.056 57.8365C382.466 63.8613 379.671 72.0577 379.671 82.4258V118.574C379.671 128.802 382.466 136.999 388.056 143.163C393.646 149.188 401.333 152.201 411.116 152.201C421.038 152.201 428.375 149.398 433.127 143.794C438.018 138.049 440.464 130.904 440.464 122.357V118.574H467.716V121.516C467.716 138.75 462.754 152.341 452.832 162.288C443.049 172.096 429.144 177 411.116 177Z"/>
<path d="M540.574 177C530.232 177 520.938 174.898 512.693 170.695C504.447 166.492 497.949 160.397 493.197 152.411C488.446 144.424 486.07 134.827 486.07 123.618V120.255C486.07 109.047 488.446 99.4492 493.197 91.4629C497.949 83.4766 504.447 77.3819 512.693 73.1786C520.938 68.9753 530.232 66.8736 540.574 66.8736C550.915 66.8736 560.209 68.9753 568.454 73.1786C576.7 77.3819 583.198 83.4766 587.95 91.4629C592.701 99.4492 595.077 109.047 595.077 120.255V123.618C595.077 134.827 592.701 144.424 587.95 152.411C583.198 160.397 576.7 166.492 568.454 170.695C560.209 174.898 550.915 177 540.574 177ZM540.574 153.462C548.679 153.462 555.387 150.869 560.698 145.685C566.009 140.361 568.664 132.795 568.664 122.988V120.886C568.664 111.078 566.009 103.582 560.698 98.3983C555.527 93.0742 548.819 90.4121 540.574 90.4121C532.468 90.4121 525.76 93.0742 520.449 98.3983C515.138 103.582 512.483 111.078 512.483 120.886V122.988C512.483 132.795 515.138 140.361 520.449 145.685C525.76 150.869 532.468 153.462 540.574 153.462Z"/>
<path d="M661.384 177C653.139 177 645.382 174.968 638.115 170.905C630.988 166.702 625.258 160.607 620.926 152.621C616.593 144.635 614.427 134.967 614.427 123.618V120.255C614.427 108.907 616.593 99.239 620.926 91.2527C625.258 83.2665 630.988 77.2418 638.115 73.1786C645.243 68.9753 652.999 66.8736 661.384 66.8736C667.673 66.8736 672.914 67.6442 677.106 69.1854C681.439 70.5865 684.933 72.408 687.588 74.6497C690.243 76.8915 692.27 79.2734 693.667 81.7953H697.441V26.9423H723.854V174.058H697.86V161.448H694.086C691.711 165.371 688.007 168.944 682.976 172.166C678.085 175.389 670.887 177 661.384 177ZM669.35 153.882C677.456 153.882 684.234 151.29 689.684 146.106C695.135 140.782 697.86 133.076 697.86 122.988V120.886C697.86 110.798 695.135 103.162 689.684 97.978C684.374 92.6538 677.596 89.9918 669.35 89.9918C661.244 89.9918 654.466 92.6538 649.016 97.978C643.566 103.162 640.84 110.798 640.84 120.886V122.988C640.84 133.076 643.566 140.782 649.016 146.106C654.466 151.29 661.244 153.882 669.35 153.882Z"/>
<path d="M800.515 177C790.173 177 781.019 174.828 773.053 170.485C765.227 166.001 759.078 159.766 754.606 151.78C750.273 143.654 748.107 134.126 748.107 123.198V120.676C748.107 109.747 750.273 100.29 754.606 92.3036C758.938 84.1772 765.017 77.9423 772.843 73.5989C780.67 69.1154 789.754 66.8736 800.095 66.8736C810.297 66.8736 819.172 69.1854 826.718 73.8091C834.265 78.2926 840.135 84.5975 844.327 92.7239C848.52 100.71 850.616 110.027 850.616 120.676V129.713H774.94C775.219 136.859 777.875 142.673 782.906 147.157C787.937 151.64 794.086 153.882 801.353 153.882C808.76 153.882 814.21 152.271 817.704 149.048C821.198 145.826 823.853 142.253 825.67 138.33L847.262 149.679C845.305 153.321 842.441 157.315 838.667 161.658C835.034 165.861 830.142 169.504 823.993 172.587C817.844 175.529 810.018 177 800.515 177ZM775.149 109.957H823.783C823.224 103.933 820.779 99.0989 816.446 95.456C812.254 91.8132 806.734 89.9918 799.886 89.9918C792.758 89.9918 787.098 91.8132 782.906 95.456C778.713 99.0989 776.128 103.933 775.149 109.957Z"/>
<path d="M885.027 174.058L865.741 26.9423H893.202L907.457 154.723H911.23L929.678 26.9423H977.473L995.921 154.723H999.694L1013.95 26.9423H1041.41L1022.12 174.058H974.329L955.462 43.3352H951.689L932.822 174.058H885.027Z"/>
<path d="M1062.47 174.058V69.8159H1088.88V174.058H1062.47ZM1075.67 57.6264C1070.92 57.6264 1066.87 56.0852 1063.51 53.0027C1060.3 49.9203 1058.69 45.8571 1058.69 40.8132C1058.69 35.7692 1060.3 31.706 1063.51 28.6236C1066.87 25.5412 1070.92 24 1075.67 24C1080.56 24 1084.62 25.5412 1087.83 28.6236C1091.04 31.706 1092.65 35.7692 1092.65 40.8132C1092.65 45.8571 1091.04 49.9203 1087.83 53.0027C1084.62 56.0852 1080.56 57.6264 1075.67 57.6264Z"/>
<path d="M1114.37 174.058V142.533L1171.39 95.0357V91.6731H1116.47V69.8159H1200.32V101.341L1143.3 148.838V152.201H1202V174.058H1114.37Z"/>
</mask>
<path d="M411.116 177C392.948 177 378.553 171.956 367.932 161.868C357.311 151.64 352 137.069 352 118.154V82.8462C352 63.9313 357.311 49.4299 367.932 39.342C378.553 29.114 392.948 24 411.116 24C429.144 24 443.049 28.9739 452.832 38.9217C462.754 48.7294 467.716 62.25 467.716 79.4835V80.7445H440.464V78.6429C440.464 69.956 438.018 62.8104 433.127 57.206C428.375 51.6016 421.038 48.7995 411.116 48.7995C401.333 48.7995 393.646 51.8118 388.056 57.8365C382.466 63.8613 379.671 72.0577 379.671 82.4258V118.574C379.671 128.802 382.466 136.999 388.056 143.163C393.646 149.188 401.333 152.201 411.116 152.201C421.038 152.201 428.375 149.398 433.127 143.794C438.018 138.049 440.464 130.904 440.464 122.357V118.574H467.716V121.516C467.716 138.75 462.754 152.341 452.832 162.288C443.049 172.096 429.144 177 411.116 177Z" fill="black"/>
<path d="M540.574 177C530.232 177 520.938 174.898 512.693 170.695C504.447 166.492 497.949 160.397 493.197 152.411C488.446 144.424 486.07 134.827 486.07 123.618V120.255C486.07 109.047 488.446 99.4492 493.197 91.4629C497.949 83.4766 504.447 77.3819 512.693 73.1786C520.938 68.9753 530.232 66.8736 540.574 66.8736C550.915 66.8736 560.209 68.9753 568.454 73.1786C576.7 77.3819 583.198 83.4766 587.95 91.4629C592.701 99.4492 595.077 109.047 595.077 120.255V123.618C595.077 134.827 592.701 144.424 587.95 152.411C583.198 160.397 576.7 166.492 568.454 170.695C560.209 174.898 550.915 177 540.574 177ZM540.574 153.462C548.679 153.462 555.387 150.869 560.698 145.685C566.009 140.361 568.664 132.795 568.664 122.988V120.886C568.664 111.078 566.009 103.582 560.698 98.3983C555.527 93.0742 548.819 90.4121 540.574 90.4121C532.468 90.4121 525.76 93.0742 520.449 98.3983C515.138 103.582 512.483 111.078 512.483 120.886V122.988C512.483 132.795 515.138 140.361 520.449 145.685C525.76 150.869 532.468 153.462 540.574 153.462Z" fill="black"/>
<path d="M661.384 177C653.139 177 645.382 174.968 638.115 170.905C630.988 166.702 625.258 160.607 620.926 152.621C616.593 144.635 614.427 134.967 614.427 123.618V120.255C614.427 108.907 616.593 99.239 620.926 91.2527C625.258 83.2665 630.988 77.2418 638.115 73.1786C645.243 68.9753 652.999 66.8736 661.384 66.8736C667.673 66.8736 672.914 67.6442 677.106 69.1854C681.439 70.5865 684.933 72.408 687.588 74.6497C690.243 76.8915 692.27 79.2734 693.667 81.7953H697.441V26.9423H723.854V174.058H697.86V161.448H694.086C691.711 165.371 688.007 168.944 682.976 172.166C678.085 175.389 670.887 177 661.384 177ZM669.35 153.882C677.456 153.882 684.234 151.29 689.684 146.106C695.135 140.782 697.86 133.076 697.86 122.988V120.886C697.86 110.798 695.135 103.162 689.684 97.978C684.374 92.6538 677.596 89.9918 669.35 89.9918C661.244 89.9918 654.466 92.6538 649.016 97.978C643.566 103.162 640.84 110.798 640.84 120.886V122.988C640.84 133.076 643.566 140.782 649.016 146.106C654.466 151.29 661.244 153.882 669.35 153.882Z" fill="black"/>
<path d="M800.515 177C790.173 177 781.019 174.828 773.053 170.485C765.227 166.001 759.078 159.766 754.606 151.78C750.273 143.654 748.107 134.126 748.107 123.198V120.676C748.107 109.747 750.273 100.29 754.606 92.3036C758.938 84.1772 765.017 77.9423 772.843 73.5989C780.67 69.1154 789.754 66.8736 800.095 66.8736C810.297 66.8736 819.172 69.1854 826.718 73.8091C834.265 78.2926 840.135 84.5975 844.327 92.7239C848.52 100.71 850.616 110.027 850.616 120.676V129.713H774.94C775.219 136.859 777.875 142.673 782.906 147.157C787.937 151.64 794.086 153.882 801.353 153.882C808.76 153.882 814.21 152.271 817.704 149.048C821.198 145.826 823.853 142.253 825.67 138.33L847.262 149.679C845.305 153.321 842.441 157.315 838.667 161.658C835.034 165.861 830.142 169.504 823.993 172.587C817.844 175.529 810.018 177 800.515 177ZM775.149 109.957H823.783C823.224 103.933 820.779 99.0989 816.446 95.456C812.254 91.8132 806.734 89.9918 799.886 89.9918C792.758 89.9918 787.098 91.8132 782.906 95.456C778.713 99.0989 776.128 103.933 775.149 109.957Z" fill="black"/>
<path d="M885.027 174.058L865.741 26.9423H893.202L907.457 154.723H911.23L929.678 26.9423H977.473L995.921 154.723H999.694L1013.95 26.9423H1041.41L1022.12 174.058H974.329L955.462 43.3352H951.689L932.822 174.058H885.027Z" fill="black"/>
<path d="M1062.47 174.058V69.8159H1088.88V174.058H1062.47ZM1075.67 57.6264C1070.92 57.6264 1066.87 56.0852 1063.51 53.0027C1060.3 49.9203 1058.69 45.8571 1058.69 40.8132C1058.69 35.7692 1060.3 31.706 1063.51 28.6236C1066.87 25.5412 1070.92 24 1075.67 24C1080.56 24 1084.62 25.5412 1087.83 28.6236C1091.04 31.706 1092.65 35.7692 1092.65 40.8132C1092.65 45.8571 1091.04 49.9203 1087.83 53.0027C1084.62 56.0852 1080.56 57.6264 1075.67 57.6264Z" fill="black"/>
<path d="M1114.37 174.058V142.533L1171.39 95.0357V91.6731H1116.47V69.8159H1200.32V101.341L1143.3 148.838V152.201H1202V174.058H1114.37Z" fill="black"/>
<path d="M411.116 177C392.948 177 378.553 171.956 367.932 161.868C357.311 151.64 352 137.069 352 118.154V82.8462C352 63.9313 357.311 49.4299 367.932 39.342C378.553 29.114 392.948 24 411.116 24C429.144 24 443.049 28.9739 452.832 38.9217C462.754 48.7294 467.716 62.25 467.716 79.4835V80.7445H440.464V78.6429C440.464 69.956 438.018 62.8104 433.127 57.206C428.375 51.6016 421.038 48.7995 411.116 48.7995C401.333 48.7995 393.646 51.8118 388.056 57.8365C382.466 63.8613 379.671 72.0577 379.671 82.4258V118.574C379.671 128.802 382.466 136.999 388.056 143.163C393.646 149.188 401.333 152.201 411.116 152.201C421.038 152.201 428.375 149.398 433.127 143.794C438.018 138.049 440.464 130.904 440.464 122.357V118.574H467.716V121.516C467.716 138.75 462.754 152.341 452.832 162.288C443.049 172.096 429.144 177 411.116 177Z" stroke="black" stroke-width="4" mask="url(#path-1-outside-1_49_20)"/>
<path d="M540.574 177C530.232 177 520.938 174.898 512.693 170.695C504.447 166.492 497.949 160.397 493.197 152.411C488.446 144.424 486.07 134.827 486.07 123.618V120.255C486.07 109.047 488.446 99.4492 493.197 91.4629C497.949 83.4766 504.447 77.3819 512.693 73.1786C520.938 68.9753 530.232 66.8736 540.574 66.8736C550.915 66.8736 560.209 68.9753 568.454 73.1786C576.7 77.3819 583.198 83.4766 587.95 91.4629C592.701 99.4492 595.077 109.047 595.077 120.255V123.618C595.077 134.827 592.701 144.424 587.95 152.411C583.198 160.397 576.7 166.492 568.454 170.695C560.209 174.898 550.915 177 540.574 177ZM540.574 153.462C548.679 153.462 555.387 150.869 560.698 145.685C566.009 140.361 568.664 132.795 568.664 122.988V120.886C568.664 111.078 566.009 103.582 560.698 98.3983C555.527 93.0742 548.819 90.4121 540.574 90.4121C532.468 90.4121 525.76 93.0742 520.449 98.3983C515.138 103.582 512.483 111.078 512.483 120.886V122.988C512.483 132.795 515.138 140.361 520.449 145.685C525.76 150.869 532.468 153.462 540.574 153.462Z" stroke="black" stroke-width="4" mask="url(#path-1-outside-1_49_20)"/>
<path d="M661.384 177C653.139 177 645.382 174.968 638.115 170.905C630.988 166.702 625.258 160.607 620.926 152.621C616.593 144.635 614.427 134.967 614.427 123.618V120.255C614.427 108.907 616.593 99.239 620.926 91.2527C625.258 83.2665 630.988 77.2418 638.115 73.1786C645.243 68.9753 652.999 66.8736 661.384 66.8736C667.673 66.8736 672.914 67.6442 677.106 69.1854C681.439 70.5865 684.933 72.408 687.588 74.6497C690.243 76.8915 692.27 79.2734 693.667 81.7953H697.441V26.9423H723.854V174.058H697.86V161.448H694.086C691.711 165.371 688.007 168.944 682.976 172.166C678.085 175.389 670.887 177 661.384 177ZM669.35 153.882C677.456 153.882 684.234 151.29 689.684 146.106C695.135 140.782 697.86 133.076 697.86 122.988V120.886C697.86 110.798 695.135 103.162 689.684 97.978C684.374 92.6538 677.596 89.9918 669.35 89.9918C661.244 89.9918 654.466 92.6538 649.016 97.978C643.566 103.162 640.84 110.798 640.84 120.886V122.988C640.84 133.076 643.566 140.782 649.016 146.106C654.466 151.29 661.244 153.882 669.35 153.882Z" stroke="black" stroke-width="4" mask="url(#path-1-outside-1_49_20)"/>
<path d="M800.515 177C790.173 177 781.019 174.828 773.053 170.485C765.227 166.001 759.078 159.766 754.606 151.78C750.273 143.654 748.107 134.126 748.107 123.198V120.676C748.107 109.747 750.273 100.29 754.606 92.3036C758.938 84.1772 765.017 77.9423 772.843 73.5989C780.67 69.1154 789.754 66.8736 800.095 66.8736C810.297 66.8736 819.172 69.1854 826.718 73.8091C834.265 78.2926 840.135 84.5975 844.327 92.7239C848.52 100.71 850.616 110.027 850.616 120.676V129.713H774.94C775.219 136.859 777.875 142.673 782.906 147.157C787.937 151.64 794.086 153.882 801.353 153.882C808.76 153.882 814.21 152.271 817.704 149.048C821.198 145.826 823.853 142.253 825.67 138.33L847.262 149.679C845.305 153.321 842.441 157.315 838.667 161.658C835.034 165.861 830.142 169.504 823.993 172.587C817.844 175.529 810.018 177 800.515 177ZM775.149 109.957H823.783C823.224 103.933 820.779 99.0989 816.446 95.456C812.254 91.8132 806.734 89.9918 799.886 89.9918C792.758 89.9918 787.098 91.8132 782.906 95.456C778.713 99.0989 776.128 103.933 775.149 109.957Z" stroke="black" stroke-width="4" mask="url(#path-1-outside-1_49_20)"/>
<path d="M885.027 174.058L865.741 26.9423H893.202L907.457 154.723H911.23L929.678 26.9423H977.473L995.921 154.723H999.694L1013.95 26.9423H1041.41L1022.12 174.058H974.329L955.462 43.3352H951.689L932.822 174.058H885.027Z" stroke="black" stroke-width="4" mask="url(#path-1-outside-1_49_20)"/>
<path d="M1062.47 174.058V69.8159H1088.88V174.058H1062.47ZM1075.67 57.6264C1070.92 57.6264 1066.87 56.0852 1063.51 53.0027C1060.3 49.9203 1058.69 45.8571 1058.69 40.8132C1058.69 35.7692 1060.3 31.706 1063.51 28.6236C1066.87 25.5412 1070.92 24 1075.67 24C1080.56 24 1084.62 25.5412 1087.83 28.6236C1091.04 31.706 1092.65 35.7692 1092.65 40.8132C1092.65 45.8571 1091.04 49.9203 1087.83 53.0027C1084.62 56.0852 1080.56 57.6264 1075.67 57.6264Z" stroke="black" stroke-width="4" mask="url(#path-1-outside-1_49_20)"/>
<path d="M1114.37 174.058V142.533L1171.39 95.0357V91.6731H1116.47V69.8159H1200.32V101.341L1143.3 148.838V152.201H1202V174.058H1114.37Z" stroke="black" stroke-width="4" mask="url(#path-1-outside-1_49_20)"/>
<path d="M0 89C0 39.8466 39.8088 0 88.9154 0H205.617C254.724 0 294.532 39.8466 294.532 89V178H88.9154C39.8088 178 0 138.154 0 89Z" fill="#060606"/>
<path d="M205.642 33.2949H88.8906C58.186 33.2949 33.2949 58.2349 33.2949 89C33.2949 119.765 58.186 144.705 88.8906 144.705H205.642C236.346 144.705 261.237 119.765 261.237 89C261.237 58.2349 236.346 33.2949 205.642 33.2949Z" fill="#858585"/>
<path d="M88.9999 116.532C104.206 116.532 116.532 104.206 116.532 89C116.532 73.7943 104.206 61.4677 88.9999 61.4677C73.7942 61.4677 61.4675 73.7943 61.4675 89C61.4675 104.206 73.7942 116.532 88.9999 116.532Z" fill="black"/>
<path d="M77.4747 83.2375C80.6573 83.2375 83.2373 80.6575 83.2373 77.4749C83.2373 74.2923 80.6573 71.7123 77.4747 71.7123C74.2922 71.7123 71.7122 74.2923 71.7122 77.4749C71.7122 80.6575 74.2922 83.2375 77.4747 83.2375Z" fill="white"/>
<path d="M211.295 116.532C226.854 116.532 239.468 104.206 239.468 89C239.468 73.7943 226.854 61.4677 211.295 61.4677C195.736 61.4677 183.122 73.7943 183.122 89C183.122 104.206 195.736 116.532 211.295 116.532Z" fill="black"/>
<path d="M200.41 83.2375C203.593 83.2375 206.173 80.6575 206.173 77.4749C206.173 74.2923 203.593 71.7123 200.41 71.7123C197.227 71.7123 194.647 74.2923 194.647 77.4749C194.647 80.6575 197.227 83.2375 200.41 83.2375Z" fill="white"/>
</svg>
